<?xml version="1.0" encoding="iso-8859-1"?>
<!-- Generator: Adobe Illustrator 16.0.0, SVG Export Plug-In . SVG Version: 6.00 Build 0)  -->
<!DOCTYPE svg PUBLIC "-//W3C//DTD SVG 1.1//EN" "http://www.w3.org/Graphics/SVG/1.1/DTD/svg11.dtd">
<svg version="1.1" id="Layer_1" xmlns="http://www.w3.org/2000/svg" xmlns:xlink="http://www.w3.org/1999/xlink" x="0px" y="0px"
	 width="500px" height="500px" viewBox="0 0 500 500" style="enable-background:new 0 0 500 500;" xml:space="preserve">
<g>
	<path d="M384.157,288.508c-56.201-18.357-79.563-41.185-79.563-41.185l-1.881,1.793c-16.69,15.709-35.149,24.944-51.965,24.944
		h-1.587c-16.815,0-35.274-9.235-51.964-24.944l-1.882-1.793c0,0-23.36,22.827-79.562,41.185
		C32.789,319.5,57.7,445.627,57.676,446.604c2.613,14.047,4.136,18.875,5.463,19.417c83.314,37.091,290.319,37.091,373.634,0
		c1.327-0.542,2.85-5.37,5.463-19.417C442.212,445.627,467.456,320.001,384.157,288.508z"/>
	<path d="M337.085,127.602l-0.696-0.755c-4.668-4.274-4.303-4.029-4.303-4.029s8.142-41.083,1.613-60.511
		c-10.25-31.027-71.475-51.822-83.755-54.239c0.002-0.023-7.469-1.518-7.946-1.521c0,0-9.659-1.953-20.854,2.93
		c-7.291,2.805-45.408,20.09-56.227,52.83c-6.528,19.428,1.614,60.511,1.614,60.511s0.365-0.245-4.304,4.029l-0.695,0.755
		c-3.158,3.586-2.378,14.806,1.074,26.479c3.128,11.695,7.205,14.838,8.182,17.577c9.903,46.497,44.338,86.197,79.429,86.197
		s67.707-39.7,77.61-86.197c0.978-2.738,5.055-5.882,8.183-17.577C339.462,142.407,340.333,130.417,337.085,127.602z"/>
</g>
</svg>
