<?xml version="1.0" encoding="utf-8"?>
<!-- Generator: Adobe Illustrator 17.0.0, SVG Export Plug-In . SVG Version: 6.00 Build 0)  -->
<!DOCTYPE svg PUBLIC "-//W3C//DTD SVG 1.1//EN" "http://www.w3.org/Graphics/SVG/1.1/DTD/svg11.dtd">
<svg version="1.1" id="Capa_1" xmlns="http://www.w3.org/2000/svg" xmlns:xlink="http://www.w3.org/1999/xlink" x="0px" y="0px"
	 width="20.587px" height="23.866px" viewBox="0 0 20.587 23.866" enable-background="new 0 0 20.587 23.866" xml:space="preserve">
<path d="M13.177,4.499c0,0,0.143-0.378-0.161-0.576C13.016,3.923,13.433,4.044,13.177,4.499z M8.325,5.306
	c1.503-0.064,1.931,1.56,1.931,1.56C10.028,4.71,8.325,5.306,8.325,5.306z M10.837,1.688c0.563,0.083,0.606,0.717,0.606,0.717
	C11.512,1.59,10.837,1.688,10.837,1.688z M20.587,13.5l-0.036,0.114l-0.058,0.108l-0.098,0.104l-0.127,0.091l-0.156,0.088
	l-0.179,0.083l-0.2,0.079v0.346l0.051,0.353l0.081,0.378l0.133,0.417l0.023,0.116l-0.023,0.108l-0.05,0.116l-0.083,0.109
	l-0.091,0.093L19.639,16.3l-0.132,0.081l-0.138,0.069l0.126,0.088l0.109,0.078l0.093,0.105l0.086,0.109l0.059,0.113l0.034,0.121
	l0.024,0.117l0.014,0.134l-0.011,0.114l-0.048,0.108l-0.058,0.105l-0.073,0.097l-0.071,0.095l-0.057,0.11l-0.057,0.102l-0.042,0.121
	v0.273l0.054,0.281l0.031,0.282l-0.057,0.259l-0.088,0.121L19.336,19.5l-0.12,0.109l-0.139,0.093l-0.146,0.072l-0.155,0.058
	l-0.149,0.038l-0.145,0.01l-0.247-0.01l-0.227-0.013l-0.223-0.025l0.506-0.01l-0.204-0.021l-0.213-0.026L17.69,19.76l-0.201-0.024
	l-0.19-0.012l-0.201-0.021h-0.049l-0.202,0.011l-0.215,0.022l-0.167,0.024l-0.154,0.051l-0.14,0.047l-0.122,0.068l-0.093,0.099
	l-0.067,0.116l-0.065,0.131l-0.034,0.162l-0.069,0.686l-0.046,1.349l-0.023,0.604v0.601l-0.044,0.193H5.326l-0.023-1.882
	l-0.008-0.612c0,0,0.127-3.106-2.888-6.211l-1.779-2.888l-0.236-0.676l-0.19-0.696L0.087,10.19L0.018,9.48L0,8.758l0.04-0.719
	l0.106-0.731l0.067-0.342l0.086-0.358l0.105-0.341l0.12-0.343l0.14-0.332l0.143-0.335L0.974,4.93L1.16,4.608L1.349,4.29l0.202-0.305
	l0.225-0.283l0.225-0.301l0.237-0.268l0.247-0.261l0.261-0.248l0.269-0.237l0.3-0.236l0.306-0.226l0.317-0.202l0.336-0.202
	l0.338-0.178l0.359-0.16l0.351-0.167L5.68,0.871l0.364-0.129L6.426,0.62l0.379-0.101l0.377-0.112l0.38-0.076l0.379-0.07l0.376-0.076
	l0.38-0.058L9.06,0.081l0.368-0.035l0.364-0.024l0.368-0.01L10.542,0l0.364,0.012l0.369,0.01l0.363,0.024l0.37,0.035l0.368,0.046
	l0.365,0.058l0.369,0.076l0.35,0.081l0.358,0.096L14.17,0.53l0.356,0.116l0.297,0.11l0.292,0.115l0.3,0.12l0.282,0.127L15.97,1.25
	l0.27,0.145l0.259,0.15L16.761,1.7l0.246,0.18l0.257,0.173l-0.497,0.188l0.223,0.202l0.223,0.213l0.212,0.216l0.212,0.238
	l0.202,0.246l0.215,0.295l0.212,0.311l0.214,0.305l0.19,0.33L18.128,4.93L18.3,5.282l0.18,0.358l0.167,0.35l0.15,0.37l0.145,0.384
	l0.133,0.373L19.201,7.5l0.122,0.375l0.103,0.39l0.097,0.383l0.081,0.386L19.58,9.223l-0.096,0.201l-0.092,0.19l-0.023,0.202
	l0.104,0.438l0.132,0.44l0.156,0.418l0.172,0.429l0.167,0.437l0.182,0.438l0.148,0.474l0.145,0.484L20.587,13.5z M10.614,6.55
	c-0.018-0.65-0.208-1.142-0.563-1.458C9.692,4.771,9.198,4.643,8.537,4.7c-0.053,0.004-0.11,0.012-0.165,0.022
	C7.812,4.831,7.229,5.226,6.958,5.81C6.489,5.368,5.801,5.219,5.242,5.329C5.185,5.339,5.131,5.352,5.08,5.368
	C4.446,5.563,4.034,5.866,3.821,6.296C3.61,6.722,3.617,7.248,3.842,7.857c0.547,1.485,3.858,3.395,3.999,3.476
	c0.064,0.037,0.136,0.046,0.205,0.034c0.068-0.013,0.131-0.05,0.178-0.109C8.322,11.131,10.66,8.128,10.614,6.55z M11.493,1.732
	c-0.109-0.145-0.284-0.229-0.534-0.255c-0.019-0.002-0.04-0.004-0.062-0.004c-0.216,0-0.46,0.107-0.603,0.304
	C10.15,1.579,9.906,1.473,9.69,1.473c-0.021,0-0.043,0.002-0.063,0.004c-0.249,0.026-0.424,0.11-0.534,0.255
	C8.984,1.875,8.949,2.07,8.988,2.313c0.097,0.592,1.19,1.538,1.236,1.579c0.021,0.017,0.047,0.026,0.074,0.026
	c0.026,0,0.053-0.008,0.074-0.027c0.046-0.04,1.131-0.986,1.227-1.578C11.638,2.07,11.604,1.875,11.493,1.732z M13.386,4.122
	c-0.026-0.112-0.105-0.206-0.243-0.287c-0.011-0.008-0.023-0.014-0.035-0.02c-0.125-0.057-0.295-0.06-0.43,0.017
	c-0.031-0.152-0.145-0.277-0.27-0.335c-0.013-0.006-0.025-0.011-0.037-0.015c-0.152-0.051-0.275-0.049-0.377,0.005
	c-0.101,0.055-0.173,0.16-0.214,0.31c-0.1,0.367,0.283,1.205,0.299,1.24c0.008,0.017,0.02,0.029,0.036,0.036
	c0.014,0.007,0.032,0.009,0.049,0.004c0.038-0.012,0.916-0.273,1.128-0.591C13.378,4.357,13.412,4.234,13.386,4.122z"/>
</svg>
